<?xml version="1.0" encoding="UTF-8"?>
<svg id="Layer_1" data-name="Layer 1" xmlns="http://www.w3.org/2000/svg" xmlns:xlink="http://www.w3.org/1999/xlink" viewBox="0 0 1200 420">
  <defs>
    <style>
      .cls-1, .cls-2, .cls-3, .cls-4 {
        fill: none;
      }

      .cls-5 {
        fill: #fe5e04;
      }

      .cls-6 {
        fill: #4e5964;
        font-family: Arial-BoldMT, Arial;
        font-size: 20px;
        font-weight: 700;
        isolation: isolate;
      }

      .cls-2 {
        stroke-width: 4px;
      }

      .cls-2, .cls-3 {
        stroke: #d8dde3;
      }

      .cls-2, .cls-3, .cls-4 {
        stroke-linecap: round;
      }

      .cls-3 {
        stroke-width: 3px;
      }

      .cls-4 {
        stroke: url(#linear-gradient);
        stroke-width: 5px;
      }
    </style>
    <linearGradient id="linear-gradient" x1="1109.24" y1="420" x2="1669.24" y2="420" gradientTransform="translate(-494230 630) scale(900 -1)" gradientUnits="userSpaceOnUse">
      <stop offset="0" stop-color="#fe5e04"/>
      <stop offset="1" stop-color="#fe5e04" stop-opacity="0"/>
    </linearGradient>
  </defs>
  <rect class="cls-1" width="1200" height="420"/>
  <path class="cls-2" d="M139,210h900"/>
  <path class="cls-4" d="M90,210h900"/>
  <g>
    <path class="cls-3" d="M469,210c80,0,100-40,200-40h300"/>
    <path class="cls-3" d="M469,210c80,0,100,40,200,40h300"/>
    <path class="cls-3" d="M569,210c70,0,100,120,180,120h220"/>
    <path class="cls-3" d="M569,210c70,0,100-120,180-120h220"/>
  </g>
  <g>
    <circle class="cls-5" cx="200" cy="210" r="5"/>
    <circle class="cls-5" cx="250" cy="210" r="5"/>
    <circle class="cls-5" cx="300" cy="210" r="5"/>
    <circle class="cls-5" cx="350" cy="210" r="5"/>
  </g>
  <g>
    <text class="cls-6" transform="translate(989 96)"><tspan x="0" y="0">Digital Services</tspan></text>
    <text class="cls-6" transform="translate(989 176)"><tspan x="0" y="0">Products</tspan></text>
    <text class="cls-6" transform="translate(989 256)"><tspan x="0" y="0">Platforms</tspan></text>
    <text class="cls-6" transform="translate(989 336)"><tspan x="0" y="0">Experiences</tspan></text>
  </g>
</svg>